<svg width="16" height="16" viewBox="100 100 820 820" xmlns="http://www.w3.org/2000/svg" fill="#ffffff"><path d="M511.6 76.3c-247 0-447.2 201-447.2 449.1 0 198.4 127.5 366.7 304.2 425.8 22.2 4.1 30.2-9.7 30.2-21.5 0-10.6-.4-45.6-.6-82.7-123.8 27.1-149.9-53.8-149.9-53.8-20.2-52.3-49.4-66.2-49.4-66.2-40.4-28.1 3-27.5 3-27.5 44.7 3.1 68.3 46 68.3 46 39.7 69 104.2 49.1 129.6 37.5 4-29 15.5-49.2 28.2-60.6-98.8-11.3-202.7-49.5-202.7-220.4 0-48.7 17.4-88.5 45.9-119.7-4.6-11.3-19.9-56.7 4.4-118.3 0 0 37.6-12 123.2 45.7 35.7-10.1 73.9-15.1 111.9-15.3 38 .2 76.2 5.2 111.9 15.3 85.6-57.7 123.2-45.7 123.2-45.7 24.4 61.6 9 107 4.4 118.3 28.6 31.2 45.8 71 45.8 119.7 0 171.3-104.2 209-203.2 220 16 13.9 30.4 41.5 30.4 83.6 0 60.4-.5 109.2-.5 124 0 11.9 8 25.8 30.4 21.5 176.7-59.1 304.1-227.3 304.1-425.7 0-248.1-200.2-449.1-447.2-449.1z" fill="#ffffff"/></svg>
